<?xml version="1.0" encoding="UTF-8"?><svg id="Acen_logo_s" xmlns="http://www.w3.org/2000/svg" viewBox="0 0 370.85 181.98"><defs><style>.cls-1{fill:#ffffff;stroke-width:0px;}</style></defs><polygon class="cls-1" points="94.05 100.8 93.88 100.42 94.04 100.8 94.05 100.8"/><polygon class="cls-1" points="65.14 100.8 65.14 100.8 65.3 100.41 65.14 100.8"/><path class="cls-1" d="m186.08,111.36l-.21,14.15c-.21.14-.56.34-1.08.62-.51.27-1.56.75-3.13,1.44-1.57.68-3.18,1.28-4.82,1.79-1.64.51-3.73.96-6.25,1.33-2.53.38-5.06.53-7.59.46-3.56-.14-7.13-.79-10.72-1.95-3.59-1.16-7.02-2.91-10.3-5.23-3.28-2.32-6.17-5.02-8.66-8.1-2.5-3.08-4.48-6.75-5.95-11.02-1.47-4.27-2.17-8.83-2.1-13.69.07-5.88,1.23-11.38,3.49-16.51,2.26-5.13,5.19-9.38,8.82-12.77,3.62-3.38,7.72-6.05,12.31-8,4.58-1.95,9.23-2.96,13.94-3.02,3.83,0,7.6.46,11.33,1.38,3.73.92,6.44,1.86,8.15,2.82l2.67,1.44v13.95c-.21-.21-.5-.49-.87-.87-.38-.37-1.25-1.06-2.61-2.05-1.37-.99-2.84-1.85-4.41-2.56-1.57-.72-3.64-1.38-6.2-2-2.56-.62-5.21-.96-7.95-1.03-3.28,0-6.55.72-9.79,2.15-3.25,1.44-6.14,3.4-8.66,5.9-2.53,2.5-4.6,5.54-6.2,9.13-1.61,3.59-2.48,7.37-2.61,11.33-.14,4.03.56,7.91,2.1,11.64,1.54,3.73,3.59,6.91,6.15,9.54,2.56,2.63,5.5,4.73,8.82,6.31,3.31,1.57,6.65,2.39,10,2.46,2.53,0,5.04-.29,7.54-.87,2.49-.58,4.6-1.32,6.31-2.2,1.71-.89,3.23-1.79,4.56-2.72,1.33-.92,2.31-1.69,2.92-2.31l1.03-.92Z"/><path class="cls-1" d="m249.94,52.4v10.87l-48.69.21v-10.97l48.69-.1Zm0,29.53v10.97h-36.9l-.21,25.84h37.11v10.97l-48.69.1v-47.79l48.69-.1Z"/><path class="cls-1" d="m265.17,129.72l.41-49.12,11.69,11.89v37.22h-12.1Zm.21-64.4l.1-18.66,68.7,70.45.21,18.77-69.01-70.55Zm69.01,37.22l-12.41-13.23.51-37.02,11.69.21.21,50.04Z"/><path class="cls-1" d="m48.96,105.45l-10.97,24.38h14.73l5.95-13.97,5.26-11.82c-7.8,1.5-12.67,1.54-14.97,1.42Z"/><path class="cls-1" d="m103.28,89.63c-3.51,2.31-10,5.16-11.55,5.83l2.16,4.96h0s0,0,0,0l.16.38h0l4.87,11.53,7.56,17.49h14.95l-18.14-40.19Z"/><path class="cls-1" d="m73.29,81.85c13.38-4.37,25.76-6.31,32.88-5.53-4.5-2.05-18.13-.23-33.32,4.74-15.54,5.08-27.53,11.75-29.19,15.93,4.79-4.81,15.91-10.66,29.63-15.14Z"/><path class="cls-1" d="m119.55,79.37c-.9-2.32-5.42-3.23-12.17-2.88,2.64.45,4.37,1.35,4.9,2.72,1.93,4.95-12.4,14.15-32,20.56-19.6,6.41-37.06,7.59-38.99,2.64-.53-1.37.18-3.07,1.91-4.94-5.47,3.64-8.33,6.97-7.43,9.29,2.04,5.23,22.45,3.34,45.58-4.22,23.13-7.56,40.23-17.93,38.19-23.16Z"/><path class="cls-1" d="m73.97,83.6c12.49-4.08,24.18-6.51,32.62-7.06-.13-.08-.27-.15-.41-.21-7.12-.78-19.5,1.15-32.88,5.53-13.72,4.48-24.85,10.34-29.63,15.14-.03.07-.05.15-.07.22,6.9-4.51,17.73-9.49,30.38-13.62Z"/><path class="cls-1" d="m86.68,52.87h-13.43l-22.18,47.86c1.7-.04,7.19-.31,15.3-2.21l20.31-45.65Z"/><path class="cls-1" d="m86.68,52.87h-13.43l6.22,14.44v-.02s10.28,23.62,10.28,23.62c1.41-.59,6.21-2.68,11.46-5.86l-14.53-32.18Z"/></svg>